<svg xmlns:svg="http://www.w3.org/2000/svg" xmlns="http://www.w3.org/2000/svg" version="1.0" width="60" height="60">
  <defs id="defs5" />
  <path d="M 15.452503,5.9367756 C 15.60361,5.9368177 15.849183,5.9557079 16.189221,5.9934462 C 16.718131,5.9934883 17.511518,6.2390606 18.569385,6.7301639 C 20.269484,7.7124944 21.119542,8.9592461 21.119562,10.470423 C 21.119542,11.301628 20.94953,11.906114 20.609526,12.283881 C 21.894039,12.019455 22.98967,11.754992 23.89642,11.490493 C 24.274202,11.377189 24.576444,11.320518 24.80315,11.320481 C 25.369832,11.320518 26.068768,11.52831 26.899962,11.943858 C 27.542202,12.170576 27.863335,12.529489 27.863362,13.020599 C 27.863335,13.285097 27.485532,13.530669 26.72995,13.757317 C 26.012098,13.984033 24.670895,14.229605 22.706338,14.494034 C 23.00856,14.645189 23.310803,14.815201 23.613067,15.00407 C 24.708676,15.646369 25.256491,16.118623 25.256515,16.420834 C 25.256491,16.534207 25.029809,16.798669 24.576467,17.214223 C 24.311982,17.478716 24.009739,17.96986 23.669738,18.687658 C 23.405253,19.216612 23.159681,19.651086 22.93302,19.991081 C 22.252953,21.048959 21.686247,21.842347 21.232903,22.371246 C 22.139612,22.257931 23.02745,22.125699 23.89642,21.974552 C 26.163219,21.672335 27.447751,21.521214 27.75002,21.521187 C 28.278919,21.521214 28.958966,21.691225 29.790162,22.031222 C 30.356839,22.409052 30.640191,22.824636 30.64022,23.277975 C 30.640191,23.580243 30.205717,23.769145 29.336797,23.844681 C 24.274202,24.146948 18.021553,25.015896 10.578832,26.451528 C 8.9920485,26.867134 7.9719789,27.074926 7.5186206,27.074905 C 6.914129,27.074926 6.0262907,26.791573 4.855103,26.224846 C 4.0994926,25.695943 3.7216891,25.261469 3.7216913,24.921422 C 3.7216891,24.619203 4.0994926,24.411411 4.855103,24.298046 C 7.121921,24.109168 10.18213,23.769145 14.035738,23.277975 C 13.922385,22.975757 13.827934,22.654624 13.752385,22.314575 C 13.299009,20.538925 12.788974,18.612126 12.222279,16.534176 C 12.146708,16.231964 12.071147,15.986392 11.995597,15.797458 C 10.748835,15.79749 9.8609966,15.665259 9.3320794,15.400764 C 8.8409271,14.947432 8.5953548,14.626299 8.5953618,14.437364 C 8.5953548,14.135155 9.1809502,13.965143 10.35215,13.927328 C 12.807864,13.6629 15.56583,13.247316 18.626056,12.680576 C 18.172674,12.151686 17.66264,11.301628 17.09595,10.130399 C 16.302547,8.3547604 15.754732,6.9568873 15.452503,5.9367756 L 15.452503,5.9367756 z M 15.962538,23.051293 C 17.133715,22.900197 18.323796,22.749075 19.532785,22.597928 C 19.721669,22.106809 19.891681,21.653445 20.04282,21.237834 C 20.533947,19.613306 20.779519,18.215433 20.779538,17.044211 C 20.779519,16.250854 20.628397,15.514137 20.326173,14.834058 C 17.568189,15.249675 15.452489,15.533028 13.979068,15.684117 C 14.696882,16.288635 15.206917,16.912011 15.509173,17.554246 C 16.038084,18.574346 16.302547,19.707757 16.302562,20.954481 C 16.302547,21.899017 16.189206,22.597954 15.962538,23.051293 L 15.962538,23.051293 z M 10.125468,28.094975 C 11.221089,28.435018 12.3545,28.907273 13.525703,29.51174 C 13.676812,29.587319 13.771263,29.64399 13.809056,29.681752 C 14.677992,29.606209 15.754732,29.341747 17.039279,28.888364 C 18.474917,28.359458 19.438316,28.000544 19.929479,27.811622 C 20.345045,27.5094 20.685068,27.320498 20.94955,27.244917 C 21.251773,27.244937 22.404074,27.717192 24.406456,28.661681 C 25.502063,29.417308 26.049878,30.002903 26.049903,30.418469 C 26.049878,30.531828 25.860976,31.079643 25.483197,32.061916 C 25.067589,32.85532 24.859797,34.102072 24.85982,35.802175 C 24.859797,39.31576 24.992028,42.092616 25.256515,44.132752 C 25.483173,46.097334 25.596514,47.551878 25.596538,48.496387 C 25.596514,50.498745 25.21871,52.161081 24.463126,53.483399 C 23.820837,54.579023 23.140791,55.221289 22.422985,55.410199 C 21.9696,55.33463 21.629577,55.013497 21.402915,54.446799 C 20.91175,53.12448 19.627218,51.481034 17.549315,49.516457 C 16.982593,49.063092 16.699241,48.779739 16.699256,48.666399 C 16.699241,48.553057 16.793692,48.496386 16.982609,48.496387 L 17.605985,48.666399 C 19.268305,49.006421 20.345045,49.176433 20.836209,49.176434 C 21.742918,49.176433 22.252953,47.910791 22.366315,45.379505 C 22.366294,44.58612 22.328513,42.942674 22.252973,40.449163 L 22.252973,39.429093 C 21.648467,40.033587 20.93064,40.732524 20.099491,41.525905 C 19.230524,42.357079 18.304906,43.396039 17.322632,44.642787 C 16.68035,45.436178 16.264767,45.832871 16.075879,45.832869 C 15.622501,45.832871 14.923564,45.417288 13.979068,44.586116 C 13.639032,44.359438 13.39346,44.151646 13.24235,43.96274 C 12.788974,45.851762 12.165598,47.532987 11.372221,49.006422 C 10.389922,50.782098 9.3320717,52.142191 8.1986677,53.086704 C 7.1030308,53.880087 6.4229844,54.276781 6.1585265,54.276787 C 5.8940595,54.276781 5.7051577,54.144549 5.5918206,53.880093 C 5.5918166,53.842306 5.8562791,53.653405 6.3852089,53.313387 C 7.5941754,51.991069 8.5953548,50.385404 9.38875,48.496387 C 10.144349,46.79627 10.673274,44.756131 10.975526,42.375963 C 11.202199,41.091437 11.31554,39.429101 11.31555,37.388952 C 11.23998,33.988731 10.994407,31.83525 10.578832,30.928505 C 10.276581,30.097354 9.9176671,29.379527 9.5020912,28.775022 C 9.5020833,28.321677 9.7098752,28.094995 10.125468,28.094975 L 10.125468,28.094975 z M 13.582373,42.319293 C 14.035726,42.281518 14.602431,42.149287 15.282491,41.922599 C 16.038084,41.695923 16.737021,41.3559 17.379303,40.902528 C 19.154964,39.920246 20.760629,38.900177 22.196303,37.842316 C 22.045161,36.217771 21.856259,34.668777 21.629597,33.195328 C 21.629577,32.213054 21.459565,31.419666 21.119562,30.815164 C 21.006201,30.475158 20.496166,30.305146 19.589456,30.305128 C 19.400536,30.305146 18.890501,30.380707 18.05935,30.531811 C 17.077044,30.75851 15.868073,30.947412 14.432432,31.098516 C 14.319078,31.136314 14.262408,31.155204 14.262421,31.155187 C 14.186847,31.268545 14.130177,31.344106 14.092409,31.381869 L 14.092409,33.025316 C 15.150246,33.289794 16.038084,33.554256 16.755926,33.818705 C 17.775981,34.196522 18.569368,34.612106 19.136091,35.065458 C 19.627218,35.443274 19.87279,35.858858 19.872809,36.312211 C 19.87279,37.672315 19.513877,38.352361 18.796068,38.352352 C 18.644929,38.352361 18.399357,38.23902 18.05935,38.012328 C 17.492628,37.634535 16.793692,37.067829 15.962538,36.312211 C 15.206917,35.594396 14.583541,34.98991 14.092409,34.498752 L 14.092409,35.235469 C 14.092396,37.993448 13.922385,40.35472 13.582373,42.319293 L 13.582373,42.319293 z M 32.623691,5.3133992 C 33.114804,5.3134419 34.002643,5.747916 35.287209,6.6168227 C 35.967221,7.0702284 36.307244,7.5802631 36.307279,8.1469285 C 36.307244,8.4869916 36.156123,9.1292576 35.853914,10.073729 C 35.8161,10.376009 35.778319,10.734923 35.740573,11.15047 C 37.667337,10.810483 40.047499,10.243778 42.881067,9.4503521 C 43.863315,9.2614889 44.41113,9.167038 44.524514,9.1669991 C 44.788934,9.167038 45.638992,9.3559398 47.074691,9.733705 C 47.981374,10.224888 48.434738,10.640472 48.434785,10.980458 C 48.434738,11.320518 48.132495,11.5472 47.528055,11.660505 C 45.525651,11.811663 42.862136,12.151686 39.537503,12.680576 C 37.912909,12.982854 37.062851,13.133975 36.987326,13.13394 C 36.458366,13.133975 35.967221,13.077305 35.513891,12.963928 C 35.324955,14.512958 35.079383,16.439756 34.777173,18.744328 C 35.79721,18.442115 36.590597,18.215433 37.157338,18.064281 C 38.479615,17.87541 39.631915,17.705398 40.614244,17.554246 C 41.672055,17.478716 42.408771,17.440936 42.824397,17.440905 C 43.051038,17.440936 43.844425,17.667618 45.204561,18.120952 C 46.375709,18.649907 46.961304,19.122161 46.96135,19.537717 C 46.961304,20.10445 46.659061,20.708936 46.05462,21.351175 C 45.41231,22.371272 44.977836,23.372451 44.751197,24.354717 C 44.751153,24.656983 44.732263,24.883665 44.694526,25.034764 C 44.732263,25.072567 44.751153,25.091457 44.751197,25.091434 C 45.544541,25.620382 45.941235,26.073746 45.941279,26.451528 C 45.941235,26.904914 45.676772,27.188267 45.147891,27.301587 C 44.505581,27.641631 42.559893,27.811643 39.31082,27.811622 C 38.819638,27.811643 37.98847,27.849423 36.817314,27.924964 C 35.79721,28.076105 34.909371,28.189446 34.153797,28.264987 C 34.267105,28.453909 34.323776,28.60503 34.323809,28.718352 C 34.323776,29.058394 34.229325,29.492868 34.040456,30.021775 C 33.927082,30.70184 33.813741,31.608568 33.700432,32.741964 C 36.382805,32.439736 39.02743,31.986372 41.634314,31.381869 C 42.352101,31.230765 42.748795,31.155204 42.824397,31.155187 C 43.164379,31.155204 43.863315,31.230765 44.921208,31.381869 C 46.016795,31.75969 46.56461,32.099713 46.564655,32.40194 C 46.56461,32.81754 45.960125,33.138673 44.751197,33.36534 C 43.806645,33.478696 43.013257,33.573147 42.371032,33.648693 C 41.804286,33.762048 40.274181,33.988731 37.780714,34.32874 C 36.420585,34.517655 35.476077,34.612106 34.947185,34.612093 C 34.380446,34.612106 33.927082,34.574326 33.587091,34.498752 C 33.549279,35.518835 33.511498,36.671136 33.47375,37.955658 C 36.345025,37.653425 39.140771,37.275621 41.860997,36.822246 C 42.578783,36.633355 42.975477,36.538904 43.051079,36.538893 C 43.391061,36.538904 44.127778,36.652245 45.261232,36.878916 C 46.356818,37.218951 46.904634,37.540084 46.904679,37.842316 C 46.904634,38.25791 46.281258,38.579044 45.03455,38.805716 C 44.052217,38.919067 43.239939,39.013518 42.597714,39.089069 C 41.993188,39.202419 40.406413,39.372431 37.837385,39.599105 C 36.439476,39.750234 35.457186,39.825795 34.890514,39.825787 C 34.285995,39.825795 33.794851,39.788015 33.417079,39.712446 L 33.417079,43.05601 C 33.454828,43.056015 33.492608,43.056015 33.53042,43.05601 C 36.590597,42.791553 39.594135,42.413749 42.541044,41.922599 C 43.33439,41.809264 43.768864,41.752593 43.844467,41.752587 C 44.260009,41.752593 45.015616,41.847044 46.111291,42.03594 C 47.206876,42.375969 47.754692,42.697102 47.754738,42.99934 C 47.754692,43.414929 47.131316,43.773842 45.884608,44.076081 C 44.864494,44.151646 43.995546,44.227206 43.277761,44.302763 C 42.597673,44.378328 40.878667,44.529449 38.120738,44.756128 C 36.647268,44.945033 35.589418,45.039484 34.947185,45.039481 C 34.342666,45.039484 33.851521,45.001704 33.47375,44.92614 C 33.624839,46.588479 33.964862,47.740779 34.49382,48.383046 C 35.060493,49.289774 35.948331,49.93204 37.157338,50.309846 C 38.744077,50.725427 40.746436,50.933219 43.16442,50.933222 C 45.544541,50.933219 47.433559,50.668757 48.831479,50.139834 C 50.83379,49.497566 52.099432,48.175253 52.628408,46.172893 C 53.195063,44.775022 53.648427,43.037125 53.988502,40.959199 C 54.139571,40.128038 54.290693,39.712454 54.441867,39.712446 C 54.668496,39.712454 54.781837,40.052477 54.781891,40.732516 C 54.781837,41.941495 54.914069,43.641611 55.178585,45.832869 C 55.216311,46.626259 55.537444,47.75967 56.141985,49.233104 C 56.595294,49.91315 56.821977,50.366514 56.822032,50.593199 C 56.821977,51.197682 56.387502,51.688826 55.518608,52.066634 C 54.762947,52.444433 53.421745,52.860017 51.494997,53.313387 C 48.925883,53.728965 46.243477,53.936757 43.447773,53.936763 C 40.765326,53.898977 38.460725,53.596734 36.533961,53.030034 C 34.229325,52.463324 32.66144,51.443254 31.830303,49.969822 C 31.112446,48.760849 30.753532,47.155184 30.753562,45.152822 C 30.791313,36.501124 30.810203,31.211874 30.810232,29.285058 C 30.734642,28.529469 30.659081,27.962764 30.58355,27.58494 C 30.092376,26.640452 29.846804,26.092637 29.846832,25.941493 C 29.846804,25.563712 30.205717,25.37481 30.923573,25.374787 C 31.452469,25.37481 32.075845,25.752613 32.793703,26.508199 C 32.869232,26.583781 32.907012,26.621561 32.907044,26.62154 C 35.589418,26.168197 37.95069,25.752613 39.990867,25.374787 C 40.481973,25.299249 40.897557,25.204798 41.23762,25.091434 C 41.350922,24.524752 41.483153,23.920266 41.634314,23.277975 C 41.860956,21.577884 41.974297,20.425583 41.974338,19.82107 C 41.558714,19.821098 40.992008,19.858878 40.27422,19.934411 C 39.480794,20.04778 38.611846,20.180011 37.667373,20.331105 C 36.420585,20.595595 35.419406,20.897838 34.663832,21.237834 C 34.248215,21.540104 33.927082,21.691225 33.700432,21.691199 C 33.247036,21.691225 32.774781,21.426763 32.283667,20.897811 C 31.792492,20.595595 31.54692,20.236682 31.54695,19.82107 C 31.54692,19.669976 31.698041,19.122161 32.000314,18.177623 C 32.264746,17.044242 32.415868,15.438577 32.453679,13.360623 C 32.453648,12.038345 32.434758,10.772703 32.397009,9.5636932 C 32.396978,8.6947836 32.245856,7.5424828 31.943644,6.1067874 C 31.943613,5.5779044 32.170296,5.3134419 32.623691,5.3133992 L 32.623691,5.3133992 z" id="text2382" style="font-size:58.03068161px;font-style:normal;font-variant:normal;font-weight:normal;font-stretch:normal;text-align:start;line-height:100%;writing-mode:lr-tb;text-anchor:start;fill:#000000;fill-opacity:1;stroke:none;stroke-width:1px;stroke-linecap:butt;stroke-linejoin:miter;stroke-opacity:1;font-family:Bitstream Vera Sans;-inkscape-font-specification:Bitstream Vera Sans" />
</svg>